<svg id="Layer_1" data-name="Layer 1" xmlns="http://www.w3.org/2000/svg" xmlns:xlink="http://www.w3.org/1999/xlink" viewBox="0 0 599.79 610.36"><defs><style>.cls-1{fill:url(#linear-gradient);}.cls-2{fill:url(#linear-gradient-2);}.cls-3{fill:url(#linear-gradient-3);}.cls-4{fill:url(#linear-gradient-4);}</style><linearGradient id="linear-gradient" x1="471.82" y1="146.2" x2="97.29" y2="149.79" gradientUnits="userSpaceOnUse"><stop offset="0" stop-color="#8b078f"/><stop offset="0.49" stop-color="#5865c5"/><stop offset="1" stop-color="#24c7fe"/></linearGradient><linearGradient id="linear-gradient-2" x1="478.9" y1="464.88" x2="106.2" y2="454.88" xlink:href="#linear-gradient"/><linearGradient id="linear-gradient-3" x1="448.86" y1="304.43" x2="595.95" y2="304.43" gradientUnits="userSpaceOnUse"><stop offset="0.29" stop-color="#de058a"/><stop offset="0.45" stop-color="#e60b55"/><stop offset="0.66" stop-color="#e8184e"/><stop offset="0.89" stop-color="#ffa300"/><stop offset="1" stop-color="#fcee21"/></linearGradient><linearGradient id="linear-gradient-4" x1="2.58" y1="304.43" x2="149.66" y2="304.43" gradientUnits="userSpaceOnUse"><stop offset="0" stop-color="#3c34eb"/><stop offset="0.15" stop-color="#374def"/><stop offset="0.39" stop-color="#3171f5"/><stop offset="0.63" stop-color="#2c8bf9"/><stop offset="0.84" stop-color="#299afb"/><stop offset="1" stop-color="#28a0fc"/></linearGradient></defs><polygon class="cls-1" points="487.12 113.11 428.14 282.06 410.61 291.63 187.47 291.63 169.93 280.47 112.55 113.11 120.52 97.17 286.29 3.14 311.56 3.14 477.55 95.58 487.12 113.11"/><polygon class="cls-2" points="189.06 317.13 409.02 317.13 429.74 331.48 485.52 495.65 477.55 513.18 310.19 605.62 287.68 605.62 122.12 513.18 112.55 495.65 169.93 329.88 189.06 317.13"/><polygon class="cls-3" points="504.65 125.86 448.86 290.04 448.86 320.47 504.65 482.93 514.16 487.79 590.72 415.95 595.95 396.98 595.95 210.47 590.72 192.81 512.62 121.08 504.65 125.86"/><polygon class="cls-4" points="93.88 125.86 149.66 290.04 149.66 320.47 93.88 482.93 84.36 487.79 7.81 415.95 2.58 396.98 2.58 210.47 7.81 192.81 85.91 121.08 93.88 125.86"/></svg>